<svg width="403" height="64" viewBox="0 0 403 64" fill="none" xmlns="http://www.w3.org/2000/svg">
<g filter="url(#filter0_d)">
<path d="M30.8171 0.0095545V6.53544H21.4304V55.9709H13.3867V6.52781H4V0.00195312L30.8171 0.0095545Z" fill="#B77A37"/>
<path d="M72.9097 0.00976562H81.0448V48.1047C81.0448 53.3494 78.2437 55.9718 72.6415 55.9718H62.7186C57.1164 55.9718 54.3153 53.3494 54.3153 48.1047V0.00976562H62.4505V46.8532C62.4505 47.926 62.6293 48.6411 62.9868 48.9987C63.3444 49.2967 64.0596 49.4457 65.1323 49.4457H70.2278C71.3602 49.4457 72.0753 49.2967 72.3733 48.9987C72.7309 48.6411 72.9097 47.9259 72.9097 46.8532L72.9097 0.00976562Z" fill="#BD833C"/>
<path d="M128.591 0.00976562H136.011V55.971H127.876L116.075 15.5641V55.971H108.656V0.00976562H117.148L128.591 39.2543L128.591 0.00976562Z" fill="#C48C41"/>
<path d="M183.877 0.00976562H191.297V55.971H183.162L171.361 15.5641V55.971H163.941V0.00976562H172.434L183.876 39.2543L183.877 0.00976562Z" fill="#CA9546"/>
<path d="M227.371 49.4451H243.551V55.971H219.236V0.00976562H242.925V6.53563H227.37V23.7886H240.243V30.3145H227.37L227.371 49.4451Z" fill="#D2A04C"/>
<path d="M284.949 27.3627L296.928 55.969H287.989L280.479 34.6927L272.97 55.969H264.299L276.099 27.3627L265.104 0.0078125H274.043L280.48 20.1218L287.006 0.0078125H295.766L284.949 27.3627Z" fill="#DCAF55"/>
<path d="M338.887 0.00976562H347.022V48.1047C347.022 53.3494 344.221 55.9718 338.619 55.9718H328.696C323.093 55.9718 320.292 53.3494 320.292 48.1047V0.00976562H328.427V46.8532C328.427 47.926 328.606 48.6411 328.964 48.9987C329.321 49.2967 330.037 49.4457 331.109 49.4457H336.205C337.337 49.4457 338.052 49.2967 338.35 48.9987C338.708 48.6411 338.887 47.9259 338.887 46.8532V0.00976562Z" fill="#E8C05E"/>
<path d="M390.722 46.8476V33.1702C390.722 32.0974 390.543 31.412 390.185 31.1141C389.887 30.7565 389.202 30.5777 388.129 30.5777H381.514C376.09 30.5777 373.379 27.9256 373.379 22.6215V7.86704C373.379 2.62235 376.15 0 381.692 0H390.453C395.995 0 398.766 2.62235 398.766 7.86704V16.0913H390.631V9.11847C390.631 8.04572 390.452 7.36034 390.094 7.06236C389.737 6.70478 389.022 6.52598 387.949 6.52598H384.194C383.122 6.52598 382.406 6.70478 382.049 7.06236C381.691 7.36034 381.513 8.04572 381.513 9.11847V21.5444C381.513 22.6171 381.691 23.3323 382.049 23.6898C382.407 23.9878 383.122 24.1368 384.194 24.1368H390.72C396.203 24.1368 398.945 26.7592 398.945 32.0038V48.0952C398.945 53.3398 396.144 55.9622 390.541 55.9622H381.87C376.328 55.9622 373.556 53.3398 373.556 48.0952V39.8709H381.692V46.8437C381.692 47.9165 381.87 48.6316 382.228 48.9892C382.586 49.2872 383.301 49.4362 384.373 49.4362H388.128C389.201 49.4362 389.886 49.2872 390.184 48.9892C390.542 48.6316 390.721 47.9165 390.721 46.8437L390.722 46.8476Z" fill="#F5D268"/>
</g>
<defs>
<filter id="filter0_d" x="0" y="0" width="402.945" height="63.9718" filterUnits="userSpaceOnUse" color-interpolation-filters="sRGB">
<feFlood flood-opacity="0" result="BackgroundImageFix"/>
<feColorMatrix in="SourceAlpha" type="matrix" values="0 0 0 0 0 0 0 0 0 0 0 0 0 0 0 0 0 0 127 0"/>
<feOffset dy="4"/>
<feGaussianBlur stdDeviation="2"/>
<feColorMatrix type="matrix" values="0 0 0 0 0 0 0 0 0 0 0 0 0 0 0 0 0 0 0.25 0"/>
<feBlend mode="normal" in2="BackgroundImageFix" result="effect1_dropShadow"/>
<feBlend mode="normal" in="SourceGraphic" in2="effect1_dropShadow" result="shape"/>
</filter>
</defs>
</svg>
