<svg width="176" height="32" viewBox="0 0 176 32" fill="none" xmlns="http://www.w3.org/2000/svg">
<rect width="176" height="32" fill="#E5E5E5"/>
<rect width="1440" height="1024" transform="translate(-46 -50)" fill="#2B2E30"/>
<g filter="url(#filter0_d)">
<path d="M15.4073 0.00521251V2.80344H11.4145V24.0008H7.99286V2.80017H4V0.00195312L15.4073 0.00521251Z" fill="#B77A37"/>
<path d="M33.3125 0.00390625H36.7731V20.6265C36.7731 22.8753 35.5815 23.9998 33.1985 23.9998H28.9775C26.5945 23.9998 25.403 22.8753 25.403 20.6265V0.00390625H28.8635V20.0898C28.8635 20.5498 28.9395 20.8565 29.0916 21.0098C29.2437 21.1376 29.5479 21.2015 30.0043 21.2015H32.1718C32.6534 21.2015 32.9576 21.1376 33.0844 21.0098C33.2365 20.8565 33.3126 20.5498 33.3126 20.0898L33.3125 0.00390625Z" fill="#BD833C"/>
<path d="M56.9982 0.00390625H60.1544V23.9994H56.6939L51.6742 6.67342V23.9994H48.518V0.00390625H52.1304L56.9978 16.8315L56.9982 0.00390625Z" fill="#C48C41"/>
<path d="M80.5153 0.00390625H83.6715V23.9994H80.211L75.1913 6.67342V23.9994H72.0351V0.00390625H75.6476L80.515 16.8315L80.5153 0.00390625Z" fill="#CA9546"/>
<path d="M99.0167 21.2012H105.899V23.9994H95.5562V0.00390625H105.633V2.80212H99.0163V10.2H104.492V12.9982H99.0163L99.0167 21.2012Z" fill="#D2A04C"/>
<path d="M123.509 11.7334L128.605 23.9994H124.802L121.608 14.8764L118.414 23.9994H114.725L119.745 11.7334L115.067 0.00390625H118.87L121.608 8.62854L124.384 0.00390625H128.11L123.509 11.7334Z" fill="#DCAF55"/>
<path d="M146.453 0.00390625H149.913V20.6265C149.913 22.8753 148.722 23.9998 146.339 23.9998H142.118C139.735 23.9998 138.543 22.8753 138.543 20.6265V0.00390625H142.004V20.0898C142.004 20.5498 142.08 20.8565 142.232 21.0098C142.384 21.1376 142.688 21.2015 143.144 21.2015H145.312C145.794 21.2015 146.098 21.1376 146.225 21.0098C146.377 20.8565 146.453 20.5498 146.453 20.0898V0.00390625Z" fill="#E8C05E"/>
<path d="M168.502 20.0877V14.223C168.502 13.763 168.426 13.4691 168.274 13.3414C168.147 13.188 167.856 13.1114 167.399 13.1114H164.585C162.278 13.1114 161.125 11.9742 161.125 9.69985V3.37329C161.125 1.12443 162.304 0 164.661 0H168.388C170.745 0 171.924 1.12443 171.924 3.37329V6.89977H168.463V3.9099C168.463 3.44991 168.387 3.15603 168.235 3.02826C168.083 2.87493 167.779 2.79827 167.323 2.79827H165.726C165.269 2.79827 164.965 2.87493 164.813 3.02826C164.661 3.15603 164.585 3.44991 164.585 3.9099V9.23798C164.585 9.69797 164.661 10.0046 164.813 10.1579C164.965 10.2857 165.269 10.3496 165.726 10.3496H168.502C170.834 10.3496 172 11.474 172 13.7229V20.6226C172 22.8715 170.808 23.9959 168.425 23.9959H164.737C162.379 23.9959 161.2 22.8715 161.2 20.6226V17.0962H164.661V20.0861C164.661 20.546 164.737 20.8527 164.889 21.006C165.041 21.1338 165.345 21.1977 165.802 21.1977H167.399C167.855 21.1977 168.147 21.1338 168.273 21.006C168.426 20.8527 168.502 20.546 168.502 20.0861L168.502 20.0877Z" fill="#F5D268"/>
</g>
<defs>
<filter id="filter0_d" x="0" y="0" width="176" height="32.0008" filterUnits="userSpaceOnUse" color-interpolation-filters="sRGB">
<feFlood flood-opacity="0" result="BackgroundImageFix"/>
<feColorMatrix in="SourceAlpha" type="matrix" values="0 0 0 0 0 0 0 0 0 0 0 0 0 0 0 0 0 0 127 0"/>
<feOffset dy="4"/>
<feGaussianBlur stdDeviation="2"/>
<feColorMatrix type="matrix" values="0 0 0 0 0 0 0 0 0 0 0 0 0 0 0 0 0 0 0.25 0"/>
<feBlend mode="normal" in2="BackgroundImageFix" result="effect1_dropShadow"/>
<feBlend mode="normal" in="SourceGraphic" in2="effect1_dropShadow" result="shape"/>
</filter>
</defs>
</svg>
